<?xml version="1.0" encoding="utf-8"?>
<!-- Generator: Adobe Illustrator 26.3.1, SVG Export Plug-In . SVG Version: 6.00 Build 0)  -->
<svg version="1.1" id="Layer_1" xmlns="http://www.w3.org/2000/svg" xmlns:xlink="http://www.w3.org/1999/xlink" x="0px" y="0px"
	 viewBox="0 0 3000 3000" style="enable-background:new 0 0 3000 3000;" xml:space="preserve">
<style type="text/css">
	.st0{fill:#F8D775;}
</style>
<g>
	<polygon class="st0" points="0,3000 0,2991.1 2971.5,2991.1 2971.5,2971.4 2991.1,2971.4 2991.1,0 3000,0 3000,2980.3 
		2980.3,2980.3 2980.3,2993.5 2980.3,2993.5 2980.3,3000 	"/>
	<g>
		<path class="st0" d="M2964.2,2984.4v-19.2l-0.5-0.1l-0.5-0.1l-0.5,0l-0.5,0l-0.5,0l-0.5,0l-0.5,0.1l-0.5,0.1l-0.5,0.1l-0.5,0.1
			l-0.5,0.1l-0.5,0.1l-0.5,0.1l-0.5,0.1l-0.5,0.2l-0.5,0.2c-0.4,0.1-1,0.4-1.3,0.5c-0.3,0.1-0.6,0.3-0.8,0.4
			c-0.2,0.1-0.5,0.2-0.6,0.3c-0.3,0.2-0.6,0.3-0.8,0.4c-0.3,0.2-0.5,0.3-0.8,0.4c-0.3,0.1-0.5,0.3-0.7,0.4c-0.2,0.1-0.5,0.3-0.7,0.4
			c-0.2,0.1-0.4,0.3-0.6,0.4l-0.1-0.1c0.1-0.2,0.3-0.4,0.4-0.5c0.1-0.2,0.3-0.4,0.4-0.6l0.2-0.3l0.2-0.3l0.2-0.3l0.2-0.3l0.2-0.3
			l0.2-0.3l0.1-0.3l0.1-0.4l0.1-0.3l0.1-0.3l0.1-0.4l0.1-0.4l0.1-0.3l0.1-0.4l0-0.3l0-0.4l0-0.4l0-0.3l0-0.3l0-0.3l-0.1-0.3
			l-0.1-0.3l-0.1-0.3l-0.1-0.3l-0.1-0.2l-0.1-0.2l-0.1-0.1l-0.1-0.2l-0.1-0.1l-0.1-0.1l-0.1-0.1l-0.1-0.1l-0.2-0.2l-0.2-0.2
			l-0.2-0.2l-0.2-0.2l-0.2-0.2l-0.2-0.1l-0.4-0.2l-0.2-0.1l-0.2-0.1l-0.4-0.1l-0.2-0.1l-0.2,0l-0.2,0l-0.2,0h-0.4l-0.2,0l-0.2,0
			l-0.2,0l-0.2,0l-0.2,0.1l-0.2,0.1l-0.4,0.1l-0.4,0.2l-0.4,0.2l-0.4,0.2l-0.4,0.2l-0.4,0.2l-0.4,0.3l-0.4,0.3l-0.4,0.3l-0.4,0.3
			l-0.7,0.6c-0.2,0.2-0.5,0.4-0.7,0.6c-0.2,0.2-0.4,0.4-0.7,0.7c-0.4,0.4-0.8,0.8-1.2,1.2c-0.2,0.2-0.4,0.4-0.7,0.6
			c-0.2,0.2-0.3,0.3-0.5,0.5c-0.2,0.2-0.6,0.6-0.8,0.9l-0.3,0.4l-0.3,0.4l-0.3,0.4l-0.3,0.4l-0.3,0.4l-0.3,0.4l-0.3,0.4l-0.2,0.4
			l-0.2,0.4l-0.2,0.4l-0.2,0.4l-0.1,0.4l-0.1,0.2l-0.1,0.2l0,0.2l0,0.2l0,0.2l0,0.2l0,0.2l0,0.2l0,0.2l0,0.2l0,0.2l0,0.2l0,0.2
			l0.1,0.2l0.1,0.2l0.1,0.2l0.1,0.2l0.1,0.2l0.1,0.2l0.1,0.2l0.1,0.2l0.1,0.2l0.1,0.2l0.2,0.2l0.2,0.2l0.2,0.2l0.2,0.2l0.2,0.2
			c0,0.1,0.1,0.1,0.1,0.1c0.1,0.1,0.1,0.1,0.2,0.2c0.1,0.1,0.1,0.1,0.2,0.2c0.1,0.1,0.1,0.1,0.2,0.2l0.2,0.2l0.2,0.2l0.3,0.1
			l0.3,0.1l0.3,0.1l0.1,0.1l0.1,0.1l0.1,0l0.1,0l0.1,0l0.1,0l0.1,0l0.1,0l0.1,0l0.1,0l0.1-0.1l0.1-0.1l0,0l0.1,0l0-0.1l0.1,0l0,0
			l0,0l0,0l0.1-0.1l0-0.1l0-0.1l0-0.1l0-0.1l0-0.1c0-0.1,0-0.2,0-0.3c0-0.1,0-0.2,0-0.3c0-0.2,0-0.4,0-0.6c0-0.1,0-0.2,0-0.3l0-0.2
			l0-0.2l0-0.2l0-0.2l0.1-0.2l0.1-0.2l0.1-0.2l0.1-0.2l0.1-0.2l0.1-0.2l0.1-0.2l0.1-0.2l0.2-0.2l0.2-0.2l0.2-0.2l0.2-0.1l0.2-0.1
			l0.2-0.1l0.2-0.1l0.2-0.1l0.2-0.1l0.2-0.1l0.2-0.1l0.2-0.1l0.2,0l0.2,0l0.2,0l0.2,0h0.2l0.2,0l0.2,0l0.2,0l0.2,0l0.2,0l0.2,0.1
			l0.2,0.1l0.2,0.1l0.2,0.1l0.2,0.1l0.2,0.1l0.2,0.1l0.2,0.1l0.2,0.1l0.1,0.1l0.2,0.1l0.1,0.1l0.1,0.2l0.1,0.2l0.1,0.2l0.1,0.2
			l0.1,0.2l0.1,0.2l0.1,0.2l0.1,0.2l0.1,0.2l0.1,0.2l0,0.2l0,0.2l0,0.2l0,0.2v0.2l0,0.2l0,0.2l0,0.2l0,0.2l0,0.2l-0.1,0.2l-0.1,0.2
			l-0.1,0.2l-0.1,0.2l-0.1,0.2l-0.1,0.2l-0.1,0.2l-0.1,0.2l-0.3,0.3l-0.1,0.2l-0.2,0.2l-0.2,0.2l-0.2,0.2l-0.2,0.2l-0.2,0.1
			l-0.2,0.1l-0.4,0.2l-0.2,0.1l-0.2,0.1l-0.2,0.1l-0.2,0.1l-0.2,0.1l-0.2,0.1l-0.2,0.1l-0.2,0.1l-0.2,0l-0.2,0l-0.2,0l-0.2,0h-0.7
			l-0.2,0l-0.2,0l-0.4-0.1l-0.4-0.1l-0.4-0.1l-0.4-0.1l-0.4-0.1l-0.4-0.2l-0.4-0.2l-0.8-0.4l-0.4-0.2l-0.4-0.2l-0.4-0.2l-0.4-0.3
			l-0.4-0.3l-0.4-0.3l-0.4-0.3l-0.3-0.3l-0.3-0.3l-0.3-0.3l-0.3-0.3c-0.2-0.2-0.3-0.3-0.5-0.5l-0.2-0.3l-0.2-0.3l-0.2-0.3l-0.2-0.3
			l-0.2-0.3l-0.2-0.3l-0.2-0.3l-0.2-0.3l-0.2-0.3l-0.2-0.3l-0.1-0.3l-0.1-0.3l-0.1-0.3l-0.1-0.3l-0.1-0.3l-0.1-0.3l-0.1-0.3
			l-0.1-0.3l-0.1-0.3l-0.1-0.3l-0.1-0.3l-0.1-0.3l0-0.3l0-0.3l0-0.3l0-0.3l0-0.6l0-0.3l0-0.3l0-0.3l0-0.3l0-0.3l0.1-0.3l0.1-0.3
			l0.1-0.3l0.1-0.3l0.1-0.3l0.1-0.3l0.1-0.3l0.2-0.6l0.2-0.6l0.3-0.6l0.3-0.6c0.2-0.3,0.3-0.5,0.4-0.8c0.1-0.1,0.2-0.3,0.3-0.4
			c0.1-0.2,0.4-0.5,0.5-0.7c0.1-0.2,0.2-0.3,0.3-0.4c0.2-0.2,0.3-0.4,0.5-0.6c0.2-0.2,0.3-0.4,0.5-0.6c0.2-0.2,0.4-0.4,0.6-0.6
			l0.5-0.4l0.5-0.4l0.5-0.4l0.5-0.4l0.5-0.3l0.5-0.3l0.5-0.3l0.5-0.3l0.2-0.1l0,0l0.3-0.1l0,0l0.5-0.2l0.5-0.2l0.5-0.2l0.6-0.1
			l0.6-0.1l0.6-0.1l0.6-0.1l0.6,0l0.6,0l0.6,0l0.6,0l0.5,0.1l0.6,0.1l0.6,0.1l0.5,0.2l0.5,0.2l0.5,0.2l0.5,0.2l0.5,0.3l0.5,0.3
			l0.5,0.3l0.5,0.3l0.5,0.4l0.3,0.2l0.2,0.2l0.2,0.2l0.2,0.3l0.2,0.3l0.2,0.3l0.2,0.3l0.2,0.3l0.2,0.3l0.2,0.3l0.2,0.3l0.2,0.4
			l0.2,0.4l0.2,0.4c0.1,0.1,0.1,0.3,0.2,0.4s0.1,0.3,0.2,0.4l5-1.1l1.2-5c-0.1-0.1-0.3-0.1-0.4-0.2c-0.1-0.1-0.3-0.1-0.4-0.2
			l-0.4-0.2l-0.4-0.2l-0.4-0.2l-0.3-0.2l-0.3-0.2l-0.3-0.2l-0.3-0.2l-0.3-0.2l-0.3-0.2l-0.3-0.2l-0.3-0.2l-0.2-0.2l-0.2-0.2
			l-0.2-0.3l-0.4-0.5l-0.4-0.5l-0.3-0.5l-0.3-0.5l-0.3-0.5l-0.2-0.5l-0.2-0.5l-0.2-0.5l-0.1-0.5l-0.1-0.6l-0.1-0.6l-0.1-0.6l0-0.5
			l0-0.6l0-0.6l0.1-0.6l0.1-0.6l0.1-0.5l0.1-0.6l0.1-0.6l0.2-0.5l0.2-0.5l0.1-0.2l0.1-0.1l0.1-0.3l0.1-0.3l0.1-0.3v0l0.2-0.4
			l0.3-0.5l0.3-0.5l0.3-0.5l0.4-0.5l0.4-0.5l0.4-0.5l0.4-0.5c0.2-0.2,0.6-0.6,0.8-0.8c0.1-0.1,0.2-0.2,0.4-0.3
			c0.2-0.1,0.4-0.4,0.6-0.5c0.2-0.1,0.3-0.3,0.5-0.4c0.2-0.1,0.4-0.3,0.6-0.4c0.2-0.1,0.4-0.3,0.6-0.4c0.2-0.1,0.4-0.2,0.6-0.4
			c0.2-0.1,0.4-0.2,0.6-0.3l0.6-0.3l0.6-0.2l0.3-0.1l0.3-0.1l0.3-0.1l0.3-0.1l0.3-0.1l0.3-0.1l0.3-0.1l0.3-0.1l0.3,0l0.3,0l0.3,0
			l0.3,0l0.3,0h0.6l0.3,0l0.3,0l0.3,0l0.3,0l0.6,0.1l0.3,0.1l0.3,0.1l0.3,0.1l0.3,0.1l0.3,0.1l0.3,0.1l0.3,0.1l0.3,0.1l0.3,0.1
			l0.3,0.1l0.3,0.1l0.3,0.2l0.3,0.2l0.3,0.2l0.3,0.2l0.3,0.2l0.3,0.2l0.5,0.4c0.2,0.2,0.4,0.3,0.5,0.5c0.2,0.2,0.3,0.3,0.5,0.5
			l0.3,0.3l0.3,0.3l0.3,0.3l0.3,0.3l0.3,0.4l0.3,0.4l0.3,0.4l0.3,0.4l0.3,0.4l0.2,0.4l0.2,0.4l0.2,0.4l0.2,0.4l0.2,0.4l0.2,0.4
			l0.1,0.4l0.1,0.4l0.1,0.4l0.1,0.4l0.1,0.4l0,0.2l0,0.2v0.7l0,0.2l0,0.2l0,0.2l-0.1,0.4l-0.1,0.2l-0.1,0.2l-0.1,0.2l-0.1,0.2
			l-0.1,0.2l-0.1,0.2l-0.1,0.2l-0.1,0.2l-0.1,0.2l-0.1,0.2l-0.3,0.4l-0.2,0.2l-0.2,0.2l-0.2,0.1l-0.2,0.1l-0.3,0.3l-0.4,0.2
			l-0.2,0.1l-0.2,0.1l-0.2,0.1l-0.2,0.1l-0.2,0.1l-0.4,0.1l-0.2,0l-0.2,0l-0.2,0h-0.4l-0.2,0l-0.2,0l-0.2,0l-0.2,0l-0.2-0.1
			l-0.2-0.1l-0.4-0.2l-0.2-0.1l-0.2-0.1l-0.2-0.1l-0.2-0.1l-0.2-0.1l-0.1-0.1l-0.2-0.1l-0.1-0.2l-0.1-0.1l-0.1-0.2l-0.1-0.2
			l-0.1-0.2l-0.1-0.2l-0.1-0.2l-0.1-0.2l-0.1-0.2l-0.1-0.2l-0.1-0.2l0-0.2l0-0.2l0-0.2l0-0.2l0-0.2v-0.2l0-0.4l0-0.2l0-0.2l0.1-0.2
			l0.1-0.2l0.1-0.2l0.1-0.2l0.1-0.2l0.1-0.2l0.1-0.2l0.1-0.2l0.1-0.2l0.2-0.2l0.2-0.2l0.2-0.2l0.2-0.1l0.2-0.1l0.2-0.1l0.2-0.1
			l0.2-0.1l0.2-0.1l0.2-0.1l0.2-0.1l0.2,0l0.2,0l0.2,0l0.2,0l0.3,0c0.2,0,0.4,0,0.6,0c0.1,0,0.2,0,0.3,0h0.3l0.1,0l0.1,0l0.1,0
			l0.1,0l0.1,0l0.1,0l0,0l0,0l0,0l0,0l0.1-0.1l0.1-0.1l0.1-0.1l0.1-0.1l0-0.1l0-0.1l0-0.1v-0.3l0-0.3l0-0.1l0-0.1l-0.1-0.1l0-0.1
			l-0.1-0.1l-0.1-0.3l-0.2-0.3l-0.2-0.2l-0.2-0.2c-0.1-0.1-0.1-0.1-0.2-0.2c-0.1-0.1-0.1-0.1-0.2-0.2c-0.1-0.1-0.1-0.1-0.2-0.2
			c-0.1-0.1-0.1-0.1-0.2-0.1l-0.2-0.2l-0.2-0.2l-0.2-0.2l-0.2-0.2l-0.2-0.1l-0.2-0.1l-0.2-0.1l-0.4-0.2l-0.2-0.1l-0.2-0.1l-0.2-0.1
			l-0.2-0.1l-0.2-0.1l-0.2-0.1l-0.2,0l-0.2,0l-0.2,0l-0.2,0l-0.2,0h-0.2l-0.2,0l-0.2,0l-0.2,0l-0.2,0l-0.2,0l-0.2,0l-0.2,0.1
			l-0.4,0.1l-0.4,0.1l-0.4,0.2l-0.4,0.2l-0.4,0.2l-0.4,0.2l-0.4,0.2l-0.4,0.3l-0.4,0.3l-0.4,0.3l-0.4,0.3l-0.4,0.3
			c-0.2,0.2-0.5,0.4-0.7,0.7l-0.7,0.7l-0.7,0.7c-0.4,0.4-0.8,0.8-1.2,1.2c-0.2,0.2-0.4,0.4-0.6,0.7c-0.2,0.2-0.5,0.5-0.7,0.7
			c-0.2,0.2-0.4,0.5-0.7,0.8l-0.3,0.4l-0.3,0.4l-0.3,0.4l-0.3,0.4l-0.3,0.4l-0.2,0.4l-0.2,0.4l-0.2,0.4l-0.2,0.4l-0.1,0.2l-0.1,0.2
			l-0.1,0.2l-0.1,0.2l0,0.2l0,0.2l0,0.2l0,0.2v0.4l0,0.2l0,0.2l0,0.2l0.1,0.2l0.1,0.2l0.1,0.2l0.1,0.2l0.1,0.2l0.1,0.2l0.1,0.2
			l0.1,0.2l0.2,0.2l0.2,0.2l0.2,0.2l0.2,0.2l0.2,0.2l0.1,0.1l0.2,0.1l0.1,0.1l0.1,0.1l0.2,0.1l0.2,0.1l0.2,0.1l0.1,0.1l0.3,0.1
			l0.3,0.1l0.3,0.1l0.3,0.1l0.3,0l0.3,0l0.4,0l0.3,0l0.4,0l0.3,0l0.4-0.1l0.4-0.1l0.3-0.1l0.3-0.1l0.3-0.1l0.3-0.1l0.3-0.1l0.3-0.1
			l0.3-0.2l0.3-0.2l0.3-0.2l0.6-0.4l0.3-0.2c0.2-0.1,0.4-0.3,0.6-0.4c0.2-0.1,0.4-0.3,0.5-0.4l0.1,0.1c-0.1,0.2-0.2,0.4-0.4,0.6
			c-0.1,0.2-0.3,0.4-0.4,0.7s-0.3,0.5-0.4,0.7c-0.1,0.3-0.3,0.5-0.4,0.8c-0.1,0.3-0.3,0.6-0.4,0.8c-0.1,0.3-0.3,0.6-0.4,0.9
			c-0.1,0.3-0.3,0.6-0.4,0.9c-0.1,0.3-0.3,0.6-0.4,0.9l-0.2,0.5l-0.2,0.5l-0.2,0.5l-0.1,0.5l-0.1,0.5l-0.1,0.5l-0.1,0.5l-0.1,0.5
			l-0.1,0.5l-0.1,0.5l0,0.5l0,0.5l0,0.5l0,0.5l0.1,0.5l0.1,0.5l19.2,0V0l2.8,0l0,2967H2967v20.2H0l0-2.8H2964.2z"/>
		<g>
			<polygon class="st0" points="2953.7,2938.9 2953.9,2938.6 2954.1,2938 2954.2,2937.9 2954.1,2938.2 2953.9,2938.5 2953.8,2938.8 
							"/>
			<path class="st0" d="M2929.3,2948.5v-0.2l0-0.2l0-0.2l0-0.2l0.1-0.2l0.1-0.2l0.1-0.2l0.1-0.2l0.1-0.2l0.2-0.2l0.2-0.2l0.2-0.1
				l0.1-0.1l0.2-0.1l0.1-0.1l0.1-0.1l0.1,0l0.1-0.1l0.1,0l0.1,0l0.1,0l0.1,0l0.1,0l0.1,0l0.1,0h0.3l0.1,0l0.1,0l0.1,0l0.1,0l0.1,0
				l0.1,0l0.1,0l0.1,0l0.1,0.1l0.1,0.1l0.1,0.1l0.1,0.1l0.2,0.2l0.1,0.2l0.1,0.2l0.1,0.2l0.1,0.2l0.1,0.2l0,0.1l0,0.1l0,0.1l0,0.1
				l0,0.1v0.2l0,0.1l0,0.1l0,0.1l0,0.1l0,0.1l0,0.1l0,0.1l0,0.1l-0.1,0.1l-0.1,0.2l-0.1,0.1l-0.1,0.1l-0.1,0.1l-0.1,0.1l-0.1,0.1
				l-0.2,0.1l-0.1,0l-0.1,0l-0.1,0l-0.1,0l-0.1,0l-0.2,0l-0.2,0h-0.2c-0.2,0-0.4,0-0.6,0c-0.1,0-0.1,0-0.1,0l0,0l-0.1,0l0,0l-0.1,0
				l0,0l0,0l0,0l0,0.1l0,0.1l0,0.1l0,0.1l0,0.1v0.1l0,0.1l0,0.1l0,0.1l0,0.1l0.1,0.1l0.1,0.1l0.1,0.1l0.1,0.1l0.1,0.1l0.1,0.1
				l0.1,0.1l0.1,0.1c0,0,0.1,0,0.1,0.1c0.1,0.1,0.2,0.1,0.2,0.2c0.1,0.1,0.1,0.1,0.2,0.2c0.1,0.1,0.2,0.1,0.2,0.1
				c0.1,0,0.2,0.1,0.2,0.1l0.2,0.1l0.2,0.1l0.2,0.1l0.2,0.1l0.2,0l0.2,0h0.2l0.2,0l0.2,0l0.2-0.1l0.2-0.1l0.2-0.1l0.2-0.1l0.2-0.1
				l0.2-0.1l0.2-0.1l0.2-0.1l0.2-0.1c0.1-0.1,0.2-0.2,0.4-0.3l0.4-0.3l0.4-0.3l0.3-0.4l0.4-0.4c0.2-0.2,0.4-0.4,0.6-0.6
				c0.2-0.2,0.4-0.4,0.7-0.7l0.3-0.4l0.3-0.4l0.2-0.2l0.1-0.2l0.1-0.2l0.1-0.2l0.1-0.2l0.1-0.2l0.1-0.2l0.1-0.2l0-0.2l0-0.2l0-0.1
				v-0.1l0-0.1l0-0.1v-0.1l0-0.2l0-0.1l0-0.1l0-0.1l0-0.1l-0.1-0.1l-0.1-0.1l-0.1-0.1l-0.1-0.1l-0.1-0.1l-0.1-0.1l-0.1-0.1l-0.1-0.1
				l-0.1-0.1l-0.1-0.1l-0.1-0.1l-0.2-0.1l-0.2-0.1l-0.2-0.1l-0.2-0.1l-0.2,0l-0.2,0l-0.2,0l-0.2,0l-0.2,0l-0.3,0l-0.2,0l-0.2,0
				l-0.2,0l-0.2,0l-0.2,0.1l-0.3,0.1l-0.3,0.1l-0.3,0.2l-0.3,0.2l-0.3,0.2l-0.3,0.2c-0.1,0.1-0.2,0.1-0.3,0.2l0,0
				c0.1-0.2,0.2-0.4,0.4-0.6c0.1-0.2,0.3-0.5,0.4-0.7c0.1-0.1,0.1-0.2,0.2-0.4c0.1-0.1,0.1-0.3,0.2-0.4c0.1-0.1,0.1-0.3,0.2-0.4
				l0.2-0.4l0.2-0.4l0.2-0.5l0.1-0.5l0.1-0.5l0.1-0.2l0-0.2l0-0.2l0-0.2l0-0.2v-0.2l0-0.2l0-0.2l-0.1,0.1l-0.1,0l-0.1,0l-0.1,0
				l-0.1,0l-0.1,0l-0.1,0h-0.2l-0.1,0l-0.1,0l-0.1,0l-0.1,0l-0.1,0l-0.1,0l-0.1,0l-0.1,0l-0.1-0.1l-0.1,0l-0.1-0.1l-0.1,0l-0.1-0.1
				l-0.1-0.1l-0.1-0.1l-0.2-0.2l-0.1-0.1l-0.1-0.1l-0.1-0.1l0-0.1l0-0.1l0-0.1l0-0.1l0-0.1l0-0.1l0-0.1l0-0.1v-0.1l0-0.1l0-0.1v-0.1
				l0-0.1l0-0.1l0-0.1l0-0.1l0-0.1l0-0.1l0-0.1l0-0.1l0.1-0.1l0.1-0.1l0.1-0.1l0.2-0.2l0.1-0.1l0.1-0.1l0.1-0.1l0.1-0.1l0.1,0l0.1,0
				l0.1-0.1l0.1,0l0.1,0l0.1,0l0.1,0l0.1,0l0.1,0l0.1,0l0.1,0h0.2l0.1,0l0.1,0l0.1,0l0.1,0l0.1,0l0.1,0l0.1,0l0.1,0l0.1,0.1l0.1,0
				l0.1,0l0.1,0.1l0.1,0.1l0.1,0.1l0.1,0.1l0.1,0.1l0.1,0.2l0.1,0.1l0.1,0.1l0,0.1l0,0.1l0,0.1l0,0.1l0,0.1l0,0.1l0,0.1l0,0.1v0.2
				l0,0.1l0,0.1l0,0.1l0,0.1l0,0.1l0,0.1l0,0.1l0.2,0l0.2,0h0.2l0.2,0l0.2,0l0.2,0l0.2,0l0.2,0l0.5-0.1l0.5-0.1l0.5-0.2l0.4-0.2
				l0.4-0.2l0.4-0.2c0.1-0.1,0.3-0.1,0.4-0.2c0.1-0.1,0.3-0.1,0.4-0.2c0.1-0.1,0.2-0.1,0.4-0.2c0.1-0.1,0.2-0.1,0.3-0.2
				c0.2-0.1,0.4-0.3,0.6-0.4l0,0l-0.2,0.3l-0.2,0.3l-0.2,0.3l-0.2,0.3l-0.1,0.3l-0.1,0.3l-0.1,0.3l-0.1,0.2l0,0.2l0,0.2l0,0.2l0,0.2
				l0,0.2v0.4l0,0.3l0,0.2l0.1,0.2l0.1,0.2l0.1,0.2l0.1,0.1l0.1,0.2l0.1,0.1l0.1,0.2l0.1,0.1l0.2,0.2l0.1,0.1l0.1,0.1l0.1,0.1
				l0.1,0.1l0.1,0.1l0.1,0.1l0.1,0l0.1,0l0.1,0l0.1,0l0.2,0l0.1,0h0.2l0.1,0l0.1,0l0.2,0l0.2,0l0.2-0.1l0.2-0.1l0.2-0.1l0.2-0.1
				l0.2-0.1l0.4-0.3l0.2-0.1l0.4-0.3l0.4-0.3c0.1-0.1,0.2-0.2,0.4-0.3c0.1-0.1,0.2-0.2,0.3-0.3c0.2-0.2,0.4-0.4,0.6-0.6
				c0.1-0.1,0.2-0.2,0.3-0.3c0.1-0.1,0.2-0.2,0.3-0.3l0.3-0.3l0.3-0.4l0.3-0.4l0.3-0.4l0.1-0.2l0.1-0.2l0.1-0.2l0.1-0.2l0.1-0.2
				l0.1-0.2l0.1-0.2l0.1-0.2l0-0.2l0-0.2v-0.2l0-0.3l0-0.1l0-0.1l0-0.1l0-0.1l0-0.1l-0.1-0.1l0-0.1l-0.1-0.1l-0.1-0.1l-0.1-0.1
				l-0.1-0.1c-0.1-0.1-0.1-0.1-0.2-0.2c-0.1-0.1-0.1-0.1-0.2-0.2c-0.1-0.1-0.1-0.1-0.2-0.1c-0.1-0.1-0.1-0.1-0.2-0.2l-0.1-0.1
				l-0.3-0.2l-0.1-0.1l-0.1-0.1l-0.1-0.1l-0.1,0l-0.1,0l-0.1,0h-0.2l-0.1,0l0,0l-0.1,0l-0.1,0l-0.1,0l0,0l0,0l0,0l0,0.1l0,0.1l0,0.1
				l0,0.1c0,0,0,0.1,0,0.1c0,0.1,0,0.2,0,0.3v0.5l0,0.2l0,0.2l0,0.1l0,0.1l0,0.1l0,0.1l-0.1,0.1l-0.1,0.1l-0.1,0.1l-0.1,0.1
				l-0.1,0.1l-0.1,0.1l-0.1,0.1l-0.2,0.1l-0.1,0.1l-0.1,0.1l-0.1,0l-0.1,0l-0.1,0l-0.1,0l-0.1,0l-0.1,0l-0.1,0l-0.1,0h-0.3l-0.1,0
				l-0.1,0l-0.1,0l-0.1,0l-0.1,0l-0.1,0l-0.2-0.1l-0.2-0.1l-0.2-0.1l-0.2-0.1l-0.2-0.1l-0.1-0.1l-0.1-0.1l-0.1-0.1l-0.1-0.1
				l-0.1-0.1l0-0.1l0-0.1l0-0.1l0-0.1l0-0.1l0-0.1l0-0.1l0-0.2v-0.2l0-0.1l0-0.1l0-0.1l0-0.1l0-0.1l0-0.1l0-0.1l0-0.1l0-0.1l0.1-0.1
				l0.1-0.1l0.1-0.1l0.1-0.2l0.1-0.1l0.1-0.1l0.2-0.2l0.2-0.2l0.2-0.1l0.2-0.1l0.2-0.1l0.2-0.1l0.2-0.1l0.2,0l0.2,0l0.2,0h0.2l0.2,0
				l0.2,0l0.2,0l0.2,0.1l0.2,0.1l0.2,0.1l0.2,0.1l0.2,0.1l0.2,0.1l0.2,0.1l0.2,0.1l0.4,0.2l0.4,0.3l0.4,0.3c0.1,0.1,0.2,0.2,0.3,0.3
				c0.1,0.1,0.2,0.2,0.3,0.3l0.2,0.2l0.2,0.3l0.2,0.3l0.2,0.3l0.2,0.3l0.2,0.3l0.2,0.3l0.1,0.3l0.1,0.3l0.1,0.3l0.1,0.3l0.1,0.3
				l0,0.3l0,0.3l0,0.3l0,0.3l0,0.3l0,0.3l-0.1,0.3l-0.1,0.3l-0.1,0.3l-0.1,0.3v0l-0.1,0.3l-0.1,0.3l-0.1,0.3l-0.1,0.1l-0.1,0.2
				l-0.2,0.3l-0.2,0.3l-0.2,0.3l-0.2,0.3l-0.2,0.3l-0.3,0.3l-0.2,0.2l-0.2,0.2l-0.2,0.2l-0.2,0.2l-0.2,0.2l-0.2,0.2l-0.3,0.1
				l-0.3,0.1l-0.3,0.1l-0.3,0.1l-0.3,0.1l-0.3,0.1l-0.3,0.1l-0.3,0.1l-0.3,0.1l-0.3,0l-0.3,0h-0.6l-0.3,0l-0.3,0l-0.3,0l-0.3-0.1
				l-0.3-0.1l-0.3-0.1l-0.3-0.1l-0.3-0.1l-0.3-0.1l-0.2-0.1l-0.2-0.2l-0.2-0.2l-0.2-0.2l-0.1-0.1l-0.1-0.1l-0.1-0.1l-0.1-0.1
				l-0.1-0.1l-0.1-0.1c-0.1-0.1-0.1-0.2-0.2-0.3c-0.1-0.1-0.1-0.2-0.2-0.3c-0.1-0.1-0.1-0.2-0.2-0.3c-0.1-0.1-0.1-0.3-0.2-0.4
				c-0.1-0.1-0.1-0.3-0.2-0.4l-2.5,0.6l-0.6,2.5c0.1,0.1,0.3,0.1,0.4,0.2c0.1,0.1,0.3,0.1,0.4,0.2c0.1,0.1,0.2,0.1,0.4,0.2
				c0.1,0.1,0.2,0.1,0.3,0.2c0.1,0.1,0.2,0.2,0.3,0.2l0.1,0.1l0.1,0.1l0.1,0.1l0.1,0.1l0.1,0.1l0.1,0.1l0.2,0.2l0.2,0.2l0.2,0.2
				l0.1,0.2l0.1,0.3l0.2,0.5l0.1,0.3l0.1,0.3l0.1,0.3l0,0.3l0,0.3l0,0.3l0,0.3l0,0.3l0,0.3l0,0.3l0,0.3l-0.1,0.3l-0.1,0.3l-0.1,0.3
				l-0.1,0.3l-0.1,0.3l-0.3,0.5l-0.1,0.2l-0.2,0.2l-0.2,0.2l-0.2,0.2l-0.2,0.2l-0.2,0.2l-0.2,0.2l-0.3,0.3l-0.3,0.3l-0.3,0.2
				l-0.3,0.2l-0.3,0.2l-0.3,0.2l-0.3,0.2l-0.3,0.2l0,0l-0.3,0.1l0,0l-0.3,0.1l-0.3,0.1l-0.3,0.1l-0.3,0.1l-0.3,0.1l-0.3,0l-0.3,0
				l-0.3,0l-0.3,0l-0.3,0l-0.3,0l-0.3-0.1l-0.3-0.1l-0.3-0.1l-0.3-0.1l-0.3-0.1l-0.3-0.1l-0.3-0.2l-0.3-0.2l-0.3-0.2l-0.3-0.2
				l-0.3-0.2l-0.3-0.2c-0.1-0.1-0.2-0.2-0.3-0.3c-0.1-0.1-0.2-0.2-0.3-0.3c-0.1-0.1-0.2-0.2-0.3-0.4l-0.3-0.4l-0.2-0.4l-0.1-0.2
				l-0.1-0.2l-0.1-0.2l-0.1-0.2l-0.1-0.2l-0.1-0.2l-0.1-0.2l-0.1-0.2l0-0.2l0-0.2L2929.3,2948.5z"/>
		</g>
	</g>
</g>
</svg>
