<?xml version="1.0" encoding="utf-8"?>
<!-- Generator: Adobe Illustrator 26.3.1, SVG Export Plug-In . SVG Version: 6.00 Build 0)  -->
<svg version="1.1" id="Layer_1" xmlns="http://www.w3.org/2000/svg" xmlns:xlink="http://www.w3.org/1999/xlink" x="0px" y="0px"
	 viewBox="0 0 3000 3000" style="enable-background:new 0 0 3000 3000;" xml:space="preserve">
<style type="text/css">
	.st0{fill:#F8D775;}
</style>
<g>
	<polygon class="st0" points="3000,3000 2991.1,3000 2991.1,28.5 2971.4,28.5 2971.4,8.9 0,8.9 0,0 2980.3,0 2980.3,19.7 
		2993.5,19.7 2993.5,19.7 3000,19.7 	"/>
	<g>
		<path class="st0" d="M2984.4,35.8h-19.2l-0.1,0.5l-0.1,0.5l0,0.5l0,0.5l0,0.5l0,0.5l0.1,0.5l0.1,0.5l0.1,0.5l0.1,0.5l0.1,0.5
			l0.1,0.5l0.1,0.5l0.1,0.5l0.2,0.5l0.2,0.5c0.1,0.4,0.4,1,0.5,1.3c0.1,0.3,0.3,0.6,0.4,0.8c0.1,0.2,0.2,0.5,0.3,0.6
			c0.2,0.3,0.3,0.6,0.4,0.8c0.2,0.3,0.3,0.5,0.4,0.8c0.1,0.3,0.3,0.5,0.4,0.7c0.1,0.2,0.3,0.5,0.4,0.7c0.1,0.2,0.3,0.4,0.4,0.6
			l-0.1,0.1c-0.2-0.1-0.4-0.3-0.5-0.4c-0.2-0.1-0.4-0.3-0.6-0.4l-0.3-0.2l-0.3-0.2l-0.3-0.2l-0.3-0.2l-0.3-0.2l-0.3-0.2l-0.3-0.1
			l-0.4-0.1l-0.3-0.1L2965,48l-0.4-0.1l-0.4-0.1l-0.3-0.1l-0.4-0.1l-0.3,0l-0.4,0l-0.4,0l-0.3,0l-0.3,0l-0.3,0l-0.3,0.1l-0.3,0.1
			l-0.3,0.1l-0.3,0.1l-0.2,0.1l-0.2,0.1l-0.1,0.1l-0.2,0.1l-0.1,0.1l-0.1,0.1l-0.1,0.1l-0.1,0.1l-0.2,0.2l-0.2,0.2l-0.2,0.2
			l-0.2,0.2l-0.2,0.2l-0.1,0.2l-0.2,0.4l-0.1,0.2l-0.1,0.2l-0.1,0.4l-0.1,0.2l0,0.2l0,0.2l0,0.2v0.4l0,0.2l0,0.2l0,0.2l0,0.2
			l0.1,0.2l0.1,0.2l0.1,0.4l0.2,0.4l0.2,0.4l0.2,0.4l0.2,0.4l0.2,0.4l0.3,0.4l0.3,0.4l0.3,0.4l0.3,0.4l0.6,0.7
			c0.2,0.2,0.4,0.5,0.6,0.7c0.2,0.2,0.4,0.5,0.7,0.7c0.4,0.4,0.8,0.8,1.2,1.2c0.2,0.2,0.4,0.4,0.6,0.7c0.2,0.2,0.3,0.3,0.5,0.5
			c0.2,0.2,0.6,0.6,0.9,0.8l0.4,0.3l0.4,0.3l0.4,0.3l0.4,0.3l0.4,0.3l0.4,0.3l0.4,0.3l0.4,0.2l0.4,0.2l0.4,0.2l0.4,0.2l0.4,0.2
			l0.2,0.1l0.2,0.1l0.2,0l0.2,0l0.2,0l0.2,0l0.2,0l0.2,0l0.2,0l0.2,0l0.2,0l0.2,0l0.2,0l0.2,0l0.2-0.1l0.2-0.1l0.2-0.1l0.2-0.1
			l0.2-0.1l0.2-0.1l0.2-0.1l0.2-0.1l0.2-0.1l0.2-0.2l0.2-0.2l0.2-0.2l0.2-0.2l0.2-0.2c0.1,0,0.1-0.1,0.1-0.1
			c0.1-0.1,0.1-0.1,0.2-0.2s0.1-0.1,0.2-0.2c0.1-0.1,0.1-0.1,0.2-0.2l0.2-0.2l0.2-0.2l0.1-0.3l0.1-0.3l0.1-0.3l0.1-0.1l0.1-0.1
			l0-0.1l0-0.1l0-0.1l0-0.1l0-0.1l0-0.1l0-0.1l0-0.1l-0.1-0.1l-0.1-0.1l0,0l0-0.1l-0.1,0l0,0l0,0l0,0l0,0l-0.1-0.1l-0.1,0l-0.1,0
			l-0.1,0l-0.1,0l-0.1,0c-0.1,0-0.2,0-0.3,0c-0.1,0-0.2,0-0.3,0c-0.2,0-0.4,0-0.6,0c-0.1,0-0.2,0-0.3,0l-0.2,0l-0.2,0l-0.2,0l-0.2,0
			l-0.2-0.1l-0.2-0.1l-0.2-0.1l-0.2-0.1l-0.2-0.1l-0.2-0.1l-0.2-0.1l-0.2-0.1l-0.2-0.2l-0.2-0.2l-0.2-0.2L2972,59l-0.1-0.2l-0.1-0.2
			l-0.1-0.2l-0.1-0.2l-0.1-0.2l-0.1-0.2l-0.1-0.2l-0.1-0.2l0-0.2l0-0.2l0-0.2l0-0.2v-0.2l0-0.2l0-0.2l0-0.2l0-0.2l0-0.2l0.1-0.2
			l0.1-0.2l0.1-0.2l0.1-0.2l0.1-0.2l0.1-0.2l0.1-0.2l0.1-0.2l0.1-0.2l0.1-0.1l0.1-0.2l0.1-0.1l0.2-0.2l0.2-0.1l0.2-0.1l0.2-0.1
			l0.2-0.1l0.2-0.1l0.2-0.1l0.2-0.1l0.2-0.1l0.2,0l0.2,0l0.2,0l0.2,0l0.2,0h0.2l0.2,0l0.2,0l0.2,0l0.2,0l0.2,0l0.2,0.1l0.2,0.1
			l0.2,0.1l0.2,0.1l0.2,0.1l0.2,0.1l0.2,0.1l0.2,0.1l0.3,0.3l0.2,0.1l0.2,0.2l0.2,0.2l0.2,0.2l0.2,0.2l0.1,0.2l0.1,0.2l0.2,0.4
			l0.1,0.2l0.1,0.2l0.1,0.2l0.1,0.2l0.1,0.2l0.1,0.2l0.1,0.2l0.1,0.2l0,0.2l0,0.2l0,0.2l0,0.2v0.7l0,0.2l0,0.2l-0.1,0.4l-0.1,0.4
			l-0.1,0.4l-0.1,0.4l-0.1,0.4l-0.2,0.4l-0.2,0.4l-0.4,0.8l-0.2,0.4l-0.2,0.4l-0.2,0.4l-0.3,0.4l-0.3,0.4l-0.3,0.4l-0.3,0.4
			l-0.3,0.3l-0.3,0.3l-0.3,0.3l-0.3,0.3c-0.2,0.2-0.3,0.3-0.5,0.5l-0.3,0.2l-0.3,0.2l-0.3,0.2l-0.3,0.2l-0.3,0.2l-0.3,0.2l-0.3,0.2
			l-0.3,0.2l-0.3,0.2l-0.3,0.2l-0.3,0.1l-0.3,0.1l-0.3,0.1l-0.3,0.1l-0.3,0.1l-0.3,0.1l-0.3,0.1l-0.3,0.1l-0.3,0.1l-0.3,0.1
			l-0.3,0.1l-0.3,0.1l-0.3,0l-0.3,0l-0.3,0l-0.3,0l-0.6,0l-0.3,0l-0.3,0l-0.3,0l-0.3,0l-0.3,0l-0.3,0l-0.3,0l-0.3-0.1l-0.3-0.1
			l-0.3-0.1l-0.3-0.1l-0.3-0.1l-0.6-0.2l-0.6-0.2l-0.6-0.3L2961,69c-0.3-0.2-0.5-0.3-0.8-0.4c-0.1-0.1-0.3-0.2-0.4-0.3
			c-0.2-0.2-0.5-0.4-0.7-0.5c-0.2-0.1-0.3-0.2-0.4-0.3c-0.2-0.2-0.4-0.3-0.6-0.5c-0.2-0.2-0.4-0.3-0.6-0.5c-0.2-0.2-0.4-0.4-0.6-0.5
			l-0.4-0.5L2956,65l-0.4-0.5l-0.4-0.5l-0.3-0.5l-0.3-0.5l-0.3-0.5l-0.3-0.5l-0.1-0.2l0,0l-0.1-0.3l0,0l-0.2-0.5l-0.2-0.5l-0.2-0.5
			l-0.1-0.5l-0.1-0.6l-0.1-0.5l-0.1-0.6l0-0.6l0-0.5l0-0.6l0-0.6l0.1-0.5l0.1-0.5l0.1-0.5l0.2-0.5l0.2-0.5l0.2-0.5l0.2-0.5l0.3-0.5
			l0.3-0.5l0.3-0.5l0.3-0.5l0.4-0.5l0.2-0.3l0.2-0.2l0.2-0.2l0.3-0.2l0.3-0.2l0.3-0.2l0.3-0.2l0.3-0.2l0.3-0.2l0.3-0.2l0.3-0.2
			l0.4-0.2l0.4-0.2l0.4-0.2c0.1-0.1,0.3-0.1,0.4-0.2s0.3-0.1,0.4-0.2l-1.1-5l-5-1.2c-0.1,0.2-0.1,0.3-0.2,0.4s-0.1,0.3-0.2,0.4
			l-0.2,0.4l-0.2,0.4l-0.2,0.4l-0.2,0.3L2953,42l-0.2,0.3l-0.2,0.3l-0.2,0.3l-0.2,0.3l-0.2,0.3l-0.2,0.3l-0.2,0.2l-0.2,0.2l-0.3,0.2
			l-0.5,0.4l-0.5,0.4l-0.5,0.3l-0.5,0.3l-0.5,0.3l-0.5,0.2l-0.5,0.2l-0.5,0.2l-0.5,0.1l-0.6,0.1l-0.6,0.1l-0.6,0.1l-0.5,0l-0.6,0
			l-0.6,0l-0.6,0l-0.6-0.1l-0.5-0.1l-0.6-0.1l-0.6-0.1l-0.5-0.2l-0.5-0.2l-0.2-0.1l-0.1-0.1l-0.3-0.2l-0.3-0.1l-0.3-0.1h0l-0.4-0.2
			l-0.5-0.3l-0.5-0.3l-0.5-0.3l-0.5-0.4l-0.5-0.4l-0.5-0.4l-0.5-0.4c-0.2-0.2-0.6-0.6-0.8-0.8c-0.1-0.1-0.2-0.2-0.3-0.4
			c-0.1-0.2-0.4-0.5-0.5-0.6c-0.1-0.2-0.3-0.3-0.4-0.5c-0.1-0.2-0.3-0.4-0.4-0.6c-0.1-0.2-0.3-0.4-0.4-0.6c-0.1-0.2-0.2-0.4-0.4-0.6
			c-0.1-0.2-0.2-0.4-0.3-0.6l-0.3-0.6l-0.2-0.6l-0.1-0.3l-0.1-0.3l-0.1-0.3l-0.1-0.3l-0.1-0.3l-0.1-0.3l-0.1-0.3l-0.1-0.3l0-0.3
			l0-0.3l0-0.3l0-0.3l0-0.3v-0.6l0-0.3l0-0.3l0-0.3l0-0.3l0.1-0.6l0.1-0.3l0.1-0.3l0.1-0.3l0.1-0.3l0.1-0.3l0.1-0.3l0.1-0.3l0.1-0.3
			l0.1-0.3l0.1-0.3l0.1-0.3l0.2-0.3l0.2-0.3l0.2-0.3l0.2-0.3l0.2-0.3l0.2-0.3l0.4-0.5c0.2-0.2,0.3-0.3,0.5-0.5
			c0.2-0.2,0.3-0.3,0.5-0.5l0.3-0.3l0.3-0.3l0.3-0.3l0.3-0.3l0.4-0.3l0.4-0.3l0.4-0.3l0.4-0.3l0.4-0.3l0.4-0.2l0.4-0.2l0.4-0.2
			l0.4-0.2l0.4-0.2l0.4-0.2l0.4-0.2l0.4-0.1l0.4-0.1l0.4-0.1l0.4-0.1l0.2,0l0.2,0h0.7l0.2,0l0.2,0l0.2,0l0.4,0.1l0.2,0.1l0.2,0.1
			l0.2,0.1l0.2,0.1l0.2,0.1l0.2,0.1l0.2,0.1l0.2,0.1l0.2,0.1l0.2,0.1l0.4,0.3l0.2,0.2l0.2,0.2l0.1,0.2l0.1,0.2l0.3,0.3l0.2,0.4
			l0.1,0.2l0.1,0.2l0.1,0.2l0.1,0.2l0.1,0.2l0.1,0.4l0,0.2l0,0.2l0,0.2v0.4l0,0.2l0,0.2l0,0.2l0,0.2l-0.1,0.2l-0.1,0.2l-0.2,0.4
			l-0.1,0.2l-0.1,0.2l-0.1,0.2l-0.1,0.2l-0.1,0.2l-0.1,0.1l-0.1,0.2l-0.2,0.1l-0.1,0.1l-0.2,0.1l-0.2,0.1l-0.2,0.1l-0.2,0.1
			l-0.2,0.1l-0.2,0.1l-0.2,0.1l-0.2,0.1l-0.2,0.1l-0.2,0l-0.2,0l-0.2,0l-0.2,0l-0.2,0h-0.2l-0.4,0l-0.2,0l-0.2,0l-0.2,0l-0.2-0.1
			l-0.2-0.1l-0.2-0.1l-0.2-0.1l-0.2-0.1l-0.2-0.1L2941,28l-0.2-0.1l-0.2-0.2l-0.2-0.2l-0.2-0.2l-0.1-0.2l-0.1-0.2l-0.1-0.2l-0.1-0.2
			l-0.1-0.2l-0.1-0.2l-0.1-0.2l-0.1-0.2l0-0.2l0-0.2l0-0.2l0-0.2l0-0.3c0-0.2,0-0.4,0-0.6c0-0.1,0-0.2,0-0.3v-0.3l0-0.1l0-0.1l0-0.1
			l0-0.1l0-0.1l0-0.1l0,0l0,0l0,0l0,0l-0.1-0.1l-0.1-0.1l-0.1-0.1l-0.1,0l-0.1,0l-0.1,0l-0.1,0h-0.3l-0.3,0l-0.1,0l-0.1,0l-0.1,0
			l-0.1,0l-0.1,0.1l-0.3,0.1l-0.3,0.2l-0.2,0.2l-0.2,0.2c-0.1,0.1-0.1,0.1-0.2,0.2c-0.1,0.1-0.1,0.1-0.2,0.2
			c-0.1,0.1-0.1,0.1-0.2,0.2c-0.1,0-0.1,0.1-0.1,0.2l-0.2,0.2l-0.2,0.2l-0.2,0.2l-0.2,0.2l-0.1,0.2l-0.1,0.2l-0.1,0.2l-0.2,0.4
			l-0.1,0.2l-0.1,0.2l-0.1,0.2L2934,27l-0.1,0.2l-0.1,0.2l0,0.2l0,0.2l0,0.2l0,0.2l0,0.2v0.2l0,0.2l0,0.2l0,0.2l0,0.2l0,0.2l0,0.2
			l0.1,0.2l0.1,0.4l0.1,0.4l0.2,0.4l0.2,0.4l0.2,0.4l0.2,0.4l0.2,0.4l0.3,0.4l0.3,0.4l0.3,0.4l0.3,0.4l0.3,0.4
			c0.2,0.2,0.4,0.5,0.7,0.7l0.7,0.7l0.7,0.7c0.4,0.4,0.8,0.8,1.2,1.2c0.2,0.2,0.4,0.4,0.7,0.6c0.2,0.2,0.5,0.5,0.7,0.7
			c0.2,0.2,0.5,0.4,0.8,0.7l0.4,0.3l0.4,0.3l0.4,0.3l0.4,0.3l0.4,0.3l0.4,0.2l0.4,0.2l0.4,0.2l0.4,0.2l0.2,0.1l0.2,0.1l0.2,0.1
			l0.2,0l0.2,0l0.2,0l0.2,0l0.2,0h0.4l0.2,0l0.2,0l0.2,0l0.2,0l0.2-0.1l0.2-0.1l0.2-0.1l0.2-0.1l0.2-0.1l0.2-0.1l0.2-0.1l0.2-0.2
			l0.2-0.2l0.2-0.2l0.2-0.2l0.2-0.2l0.1-0.1l0.1-0.2l0.1-0.2l0.1-0.1l0.1-0.2l0.1-0.2l0.1-0.2l0.1-0.1l0.1-0.3l0.1-0.3l0.1-0.3
			l0.1-0.3l0-0.3l0-0.3l0-0.4l0-0.3l0-0.4l0-0.3l-0.1-0.3l-0.1-0.4l-0.1-0.3l-0.1-0.3l-0.1-0.3l-0.1-0.3l-0.1-0.3l-0.1-0.3l-0.2-0.3
			l-0.2-0.3l-0.2-0.3l-0.4-0.6l-0.2-0.3c-0.1-0.2-0.3-0.4-0.4-0.6c-0.1-0.2-0.3-0.4-0.4-0.5l0.1-0.1c0.2,0.1,0.4,0.2,0.6,0.4
			c0.2,0.1,0.4,0.3,0.7,0.4c0.2,0.1,0.5,0.3,0.7,0.4c0.3,0.1,0.5,0.3,0.8,0.4c0.3,0.1,0.6,0.3,0.8,0.4c0.3,0.1,0.6,0.3,0.9,0.4
			c0.3,0.1,0.6,0.3,0.9,0.4c0.3,0.1,0.6,0.3,0.9,0.4l0.5,0.2l0.5,0.2l0.5,0.2l0.5,0.1l0.5,0.1l0.5,0.1l0.5,0.1l0.5,0.1l0.5,0.1
			l0.5,0.1l0.5,0l0.5,0l0.5,0l0.5,0l0.5-0.1l0.5-0.1l0-19.2H0l0-2.8h2967V33h20.2v2967h-2.8V35.8z"/>
		<g>
			<polygon class="st0" points="2938.9,46.3 2938.6,46.1 2938,45.9 2937.9,45.8 2938.2,45.9 2938.5,46.1 2938.8,46.2 			"/>
			<path class="st0" d="M2948.5,70.7h-0.2l-0.2,0l-0.2,0l-0.2,0l-0.2-0.1l-0.2-0.1l-0.2-0.1l-0.2-0.1l-0.2-0.1l-0.2-0.2l-0.2-0.2
				l-0.1-0.2l-0.1-0.1l-0.1-0.2l-0.1-0.1l-0.1-0.1l0-0.1l-0.1-0.1l0-0.1l0-0.1l0-0.1l0-0.1l0-0.1l0-0.1l0-0.1V68l0-0.1l0-0.1l0-0.1
				l0-0.1l0-0.1l0-0.1l0-0.1l0-0.1l0.1-0.1l0.1-0.1l0.1-0.1l0.1-0.1l0.2-0.2l0.2-0.1l0.2-0.1l0.2-0.1l0.2-0.1l0.2-0.1l0.1,0l0.1,0
				l0.1,0l0.1,0l0.1,0h0.2l0.1,0l0.1,0l0.1,0l0.1,0l0.1,0l0.1,0l0.1,0l0.1,0l0.1,0.1l0.2,0.1l0.1,0.1l0.1,0.1l0.1,0.1l0.1,0.1
				l0.1,0.1l0.1,0.2l0,0.1l0,0.1l0,0.1l0,0.1l0,0.1l0,0.2l0,0.2v0.2c0,0.2,0,0.4,0,0.6c0,0,0,0.1,0,0.1l0,0l0,0.1l0,0l0,0l0,0l0,0
				l0,0l0.1,0l0.1,0l0.1,0l0.1,0l0.1,0h0.1l0.1,0l0.1,0l0.1,0l0.1,0l0.1-0.1l0.1-0.1l0.1-0.1l0.1-0.1l0.1-0.1l0.1-0.1l0.1-0.1
				l0.1-0.1c0,0,0-0.1,0.1-0.1c0.1-0.1,0.1-0.2,0.2-0.2c0.1-0.1,0.1-0.1,0.2-0.2c0.1-0.1,0.1-0.2,0.1-0.2c0-0.1,0.1-0.1,0.1-0.2
				l0.1-0.2l0.1-0.2l0.1-0.2l0.1-0.2l0-0.2l0-0.2v-0.2l0-0.2l0-0.2l-0.1-0.2l-0.1-0.2l-0.1-0.2l-0.1-0.2l-0.1-0.2l-0.1-0.2l-0.1-0.2
				l-0.1-0.2l-0.1-0.2c-0.1-0.1-0.2-0.2-0.3-0.4l-0.3-0.4l-0.3-0.4l-0.4-0.3l-0.4-0.4c-0.2-0.2-0.4-0.4-0.6-0.6
				c-0.2-0.2-0.4-0.4-0.7-0.7l-0.4-0.3l-0.4-0.3l-0.2-0.2l-0.2-0.1l-0.2-0.1l-0.2-0.1l-0.2-0.1l-0.2-0.1l-0.2-0.1l-0.2-0.1l-0.2,0
				l-0.2,0l-0.1,0h-0.1l-0.1,0l-0.1,0h-0.1l-0.2,0l-0.1,0l-0.1,0l-0.1,0l-0.1,0l-0.1,0.1l-0.1,0l-0.1,0.1l-0.1,0.1l-0.1,0.1
				l-0.1,0.1l-0.1,0.1l-0.1,0.1l-0.1,0.1l-0.1,0.1l-0.1,0.2l-0.1,0.1l-0.1,0.2l-0.1,0.2l-0.1,0.2l0,0.2l0,0.2l0,0.2l0,0.2l0,0.2
				l0,0.3l0,0.2l0,0.2l0,0.2l0,0.2l0.1,0.2l0.1,0.3l0.1,0.3l0.2,0.3l0.2,0.3l0.2,0.3l0.2,0.3c0.1,0.1,0.1,0.2,0.2,0.3l0,0
				c-0.2-0.1-0.4-0.2-0.6-0.4c-0.2-0.1-0.5-0.3-0.7-0.4c-0.1-0.1-0.2-0.1-0.4-0.2s-0.3-0.1-0.4-0.2c-0.1-0.1-0.3-0.1-0.4-0.2
				l-0.4-0.2l-0.4-0.2l-0.5-0.2l-0.5-0.1l-0.5-0.1l-0.2,0l-0.2,0l-0.2,0l-0.2,0l-0.2,0h-0.2l-0.2,0l-0.2,0l0.1,0.1l0,0.1l0,0.1
				l0,0.1l0,0.1l0,0.1l0,0.1v0.2l0,0.1l0,0.1l0,0.1l0,0.1l0,0.1l0,0.1l0,0.1l0,0.1l-0.1,0.1l0,0.1l-0.1,0.1l0,0.1l-0.1,0.1l-0.1,0.1
				l-0.1,0.1l-0.2,0.2l-0.1,0.1l-0.1,0l-0.1,0l-0.1,0l-0.1,0l-0.1,0l-0.1,0l-0.1,0l-0.1,0l-0.1,0l-0.1,0h-0.1l-0.1,0l-0.1,0h-0.1
				l-0.1,0l-0.1,0l-0.1,0l-0.1,0l-0.1,0l-0.1,0l-0.1,0l-0.1,0l-0.1,0l-0.1,0l-0.1-0.1l-0.2-0.2l-0.1-0.1l-0.1-0.1l-0.1-0.1l-0.1-0.1
				l0-0.1l0-0.1l-0.1-0.1l0-0.1l0-0.1l0-0.1l0-0.1l0-0.1l0-0.1l0-0.1l0-0.1v-0.2l0-0.1l0-0.1l0-0.1l0-0.1l0-0.1l0-0.1l0-0.1l0-0.1
				l0.1-0.1l0-0.1l0-0.1l0.1-0.1l0.1-0.1l0.1-0.1l0.1-0.1l0.1-0.1l0.2-0.1l0.1,0l0.1,0l0.1,0l0.1,0l0.1,0l0.1,0l0.1,0l0.1,0l0.1,0
				l0.1,0h0.2l0.1,0l0.1,0l0.1,0l0.1,0l0.1,0l0.1,0l0.1,0l0-0.2l0-0.2v-0.2l0-0.2l0-0.2l0-0.2l0-0.2l0-0.2l-0.1-0.5l-0.1-0.5
				l-0.2-0.5l-0.2-0.4l-0.2-0.4l-0.2-0.4c-0.1-0.1-0.1-0.3-0.2-0.4c-0.1-0.1-0.1-0.3-0.2-0.4c-0.1-0.1-0.1-0.2-0.2-0.4
				c-0.1-0.1-0.1-0.2-0.2-0.3c-0.1-0.2-0.3-0.4-0.4-0.6l0,0l0.3,0.2l0.3,0.2l0.3,0.2l0.3,0.2l0.3,0.2l0.3,0.1l0.3,0.1l0.2,0l0.2,0
				l0.2,0l0.2,0l0.2,0l0.2,0h0.4l0.3,0l0.2,0l0.2,0l0.2-0.1l0.2-0.1l0.1-0.1l0.2-0.1l0.1-0.1l0.2-0.1l0.1-0.1l0.2-0.2l0.1-0.1
				l0.1-0.1l0.1-0.1l0.1-0.1l0.1-0.1l0.1-0.1l0-0.1l0-0.1l0-0.1l0-0.1l0-0.2l0-0.1v-0.2l0-0.1l0-0.1l0-0.2l0-0.2l-0.1-0.2l-0.1-0.2
				l-0.1-0.2l-0.1-0.2l-0.1-0.2l-0.3-0.4l-0.1-0.2l-0.3-0.4l-0.3-0.4c-0.1-0.1-0.2-0.2-0.3-0.3c-0.1-0.1-0.2-0.2-0.3-0.3
				c-0.2-0.2-0.4-0.4-0.6-0.6c-0.1-0.1-0.2-0.2-0.3-0.3c-0.1-0.1-0.2-0.2-0.3-0.3l-0.3-0.3l-0.4-0.3l-0.4-0.3l-0.4-0.3l-0.2-0.1
				l-0.2-0.1L2935,48l-0.2-0.1l-0.2-0.1l-0.2-0.1l-0.2-0.1l-0.2-0.1l-0.2,0l-0.2,0h-0.2l-0.3,0l-0.1,0l-0.1,0l-0.1,0l-0.1,0l-0.1,0
				l-0.1,0l-0.1,0l-0.1,0.1L2932,48l-0.1,0.1l-0.1,0.1c-0.1,0.1-0.1,0.1-0.2,0.2c-0.1,0.1-0.1,0.1-0.2,0.2c-0.1,0-0.1,0.1-0.1,0.2
				s-0.1,0.1-0.2,0.2L2931,49l-0.2,0.3l-0.1,0.1l-0.1,0.1l-0.1,0.1l0,0.1l0,0.1l0,0.1V50l0,0.1l0,0l0,0.1l0,0l0,0.1l0,0l0,0l0,0
				l0.1,0l0.1,0l0.1,0l0.1,0c0,0,0.1,0,0.1,0c0.1,0,0.2,0,0.3,0h0.5l0.2,0l0.2,0l0.1,0l0.1,0l0.1,0l0.1,0l0.1,0l0.1,0l0.1,0.1
				l0.1,0.1l0.1,0.1l0.1,0.1l0.1,0.1l0.1,0.2l0.1,0.1l0.1,0.1l0,0.1l0,0.1l0,0.1l0,0.1l0,0.1l0,0.1l0,0.1l0,0.1v0.3l0,0.1l0,0.1
				l0,0.1l0,0.1l0,0.1l0,0.1l-0.1,0.2l-0.1,0.2l-0.1,0.2l-0.1,0.2l-0.1,0.2l-0.1,0.1l-0.1,0.1l-0.1,0.1l-0.1,0.1l-0.1,0.1l-0.1,0
				l-0.1,0l-0.1,0l-0.1,0l-0.1,0l-0.1,0l-0.1,0l-0.2,0h-0.2l-0.1,0l-0.1,0l-0.1,0l-0.1,0l-0.1,0l-0.1,0l-0.1,0l-0.1,0l-0.1,0l-0.1,0
				l-0.1-0.1l-0.1-0.1l-0.2-0.1l-0.1-0.1l-0.1-0.1l-0.2-0.2l-0.2-0.2l-0.1-0.2l-0.1-0.2l-0.1-0.2l-0.1-0.2l-0.1-0.2l0-0.2l0-0.2
				l0-0.2v-0.2l0-0.2l0-0.2l0-0.2l0.1-0.2l0.1-0.2l0.1-0.2l0.1-0.2l0.1-0.2l0.1-0.2l0.1-0.2l0.1-0.2l0.2-0.4l0.3-0.4l0.3-0.4
				c0.1-0.1,0.2-0.2,0.3-0.3c0.1-0.1,0.2-0.2,0.3-0.3l0.2-0.2l0.3-0.2l0.3-0.2l0.3-0.2l0.3-0.2l0.3-0.2l0.3-0.2l0.3-0.1l0.3-0.1
				l0.3-0.1l0.3-0.1l0.3-0.1l0.3,0l0.3,0l0.3,0l0.3,0l0.3,0l0.3,0l0.3,0.1l0.3,0.1l0.3,0.1l0.3,0.1h0l0.3,0.1l0.3,0.1l0.3,0.2
				l0.1,0.1l0.2,0.1l0.3,0.2l0.3,0.2l0.3,0.2l0.3,0.2l0.3,0.2l0.3,0.3l0.2,0.2l0.2,0.2l0.2,0.2l0.2,0.2l0.2,0.2l0.2,0.2l0.1,0.3
				l0.1,0.3l0.1,0.3l0.1,0.3l0.1,0.3l0.1,0.3l0.1,0.3l0.1,0.3l0.1,0.3l0,0.3l0,0.3v0.5l0,0.3l0,0.3l0,0.3l-0.1,0.3l-0.1,0.3
				l-0.1,0.3l-0.1,0.3l-0.1,0.3l-0.1,0.3l-0.1,0.2l-0.2,0.2l-0.2,0.2l-0.2,0.2l-0.1,0.1l-0.1,0.1l-0.1,0.1l-0.1,0.1l-0.1,0.1
				l-0.1,0.1c-0.1,0.1-0.2,0.2-0.3,0.2c-0.1,0.1-0.2,0.1-0.3,0.2c-0.1,0.1-0.2,0.1-0.3,0.2c-0.1,0.1-0.3,0.1-0.4,0.2
				c-0.1,0.1-0.3,0.1-0.4,0.2l0.6,2.5l2.5,0.6c0.1-0.1,0.1-0.3,0.2-0.4c0.1-0.1,0.1-0.3,0.2-0.4c0.1-0.1,0.1-0.2,0.2-0.4
				c0.1-0.1,0.1-0.2,0.2-0.3c0.1-0.1,0.2-0.2,0.2-0.3l0.1-0.1l0.1-0.1l0.1-0.1l0.1-0.1l0.1-0.1l0.1-0.1l0.2-0.2l0.2-0.2l0.2-0.2
				l0.2-0.1l0.3-0.1l0.5-0.2l0.3-0.1l0.3-0.1l0.3-0.1l0.3,0l0.3,0l0.3,0l0.3,0l0.3,0l0.3,0l0.3,0l0.3,0l0.3,0.1l0.3,0.1l0.3,0.1
				l0.3,0.1l0.3,0.1l0.5,0.3l0.2,0.1l0.2,0.2l0.2,0.2l0.2,0.2l0.2,0.2l0.2,0.2l0.2,0.2l0.3,0.3l0.3,0.3l0.2,0.3l0.2,0.3l0.2,0.3
				l0.2,0.3l0.2,0.3l0.2,0.3l0,0l0.1,0.3l0,0l0.1,0.3l0.1,0.3l0.1,0.3l0.1,0.3l0.1,0.3l0,0.3l0,0.3l0,0.3l0,0.3l0,0.3l0,0.3
				l-0.1,0.3l-0.1,0.3l-0.1,0.3l-0.1,0.3l-0.1,0.3l-0.1,0.3l-0.2,0.3l-0.2,0.3l-0.2,0.3l-0.2,0.3l-0.2,0.3l-0.2,0.3
				c-0.1,0.1-0.2,0.2-0.3,0.3c-0.1,0.1-0.2,0.2-0.3,0.3c-0.1,0.1-0.2,0.2-0.4,0.3l-0.4,0.3l-0.4,0.2l-0.2,0.1l-0.2,0.1l-0.2,0.1
				l-0.2,0.1l-0.2,0.1l-0.2,0.1l-0.2,0.1l-0.2,0.1l-0.2,0l-0.2,0L2948.5,70.7z"/>
		</g>
	</g>
</g>
</svg>
