<?xml version="1.0" encoding="utf-8"?>
<!-- Generator: Adobe Illustrator 26.3.1, SVG Export Plug-In . SVG Version: 6.00 Build 0)  -->
<svg version="1.1" id="Layer_1" xmlns="http://www.w3.org/2000/svg" xmlns:xlink="http://www.w3.org/1999/xlink" x="0px" y="0px"
	 viewBox="0 0 3000 3000" style="enable-background:new 0 0 3000 3000;" xml:space="preserve">
<style type="text/css">
	.st0{fill:#F8D775;}
</style>
<g>
	<polygon class="st0" points="3000,0 3000,8.9 28.5,8.9 28.5,28.6 8.9,28.6 8.9,3000 0,3000 0,19.7 19.7,19.7 19.7,6.5 19.7,6.5 
		19.7,0 	"/>
	<g>
		<path class="st0" d="M35.8,15.6v19.2l0.5,0.1l0.5,0.1l0.5,0l0.5,0l0.5,0l0.5,0l0.5,0l0.5-0.1l0.5-0.1l0.5-0.1l0.5-0.1l0.5-0.1
			l0.5-0.2l0.5-0.1l0.5-0.2l0.5-0.2c0.4-0.1,1-0.4,1.3-0.5c0.3-0.1,0.6-0.3,0.8-0.4c0.2-0.1,0.5-0.2,0.6-0.3
			c0.3-0.2,0.6-0.3,0.8-0.4c0.3-0.2,0.5-0.3,0.8-0.4c0.3-0.2,0.5-0.3,0.7-0.4c0.2-0.2,0.5-0.3,0.7-0.4c0.2-0.1,0.4-0.3,0.6-0.4
			l0.1,0.1c-0.1,0.2-0.3,0.4-0.4,0.5c-0.1,0.2-0.3,0.4-0.4,0.6L49.3,32l-0.2,0.3L49,32.6l-0.2,0.3l-0.2,0.3l-0.2,0.3l-0.1,0.3
			l-0.1,0.4l-0.1,0.3L48,35l-0.1,0.3l-0.1,0.4L47.7,36l-0.1,0.3l0,0.4l0,0.3l0,0.4l0,0.3l0,0.3l0,0.3l0.1,0.3l0.1,0.3l0.1,0.3
			l0.1,0.3l0.1,0.2l0.1,0.2l0.1,0.2l0.1,0.2l0.1,0.2l0.1,0.1l0.1,0.1l0.1,0.2l0.2,0.2l0.2,0.2l0.2,0.2l0.2,0.2l0.2,0.1l0.2,0.1
			l0.4,0.2l0.2,0.1l0.2,0.1l0.4,0.1l0.2,0l0.2,0l0.2,0l0.2,0h0.4l0.2,0l0.2,0l0.2,0l0.2,0l0.2,0l0.2,0l0.4-0.1l0.4-0.2l0.4-0.2
			l0.4-0.2l0.4-0.2l0.4-0.2l0.4-0.3l0.4-0.3l0.4-0.3l0.4-0.3l0.7-0.6c0.2-0.2,0.5-0.4,0.7-0.6c0.2-0.2,0.5-0.4,0.7-0.7
			c0.4-0.4,0.8-0.8,1.2-1.2c0.2-0.2,0.4-0.4,0.7-0.6c0.2-0.2,0.3-0.3,0.5-0.5c0.2-0.2,0.6-0.6,0.8-0.9l0.3-0.4l0.3-0.4l0.3-0.4
			l0.3-0.4l0.3-0.4l0.3-0.4l0.3-0.4l0.2-0.4l0.2-0.4l0.2-0.4l0.2-0.4l0.2-0.4l0.1-0.2l0.1-0.2l0-0.2l0-0.2l0-0.2l0-0.2l0-0.2l0-0.2
			l0-0.2l0-0.2l0-0.2l0-0.2l0-0.2l0-0.2l-0.1-0.2l-0.1-0.2L66,26.4l-0.1-0.2L65.8,26l-0.1-0.2l-0.1-0.2l-0.1-0.2l-0.1-0.2l-0.2-0.2
			L65,24.7l-0.2-0.2l-0.2-0.2L64.4,24c0,0-0.1-0.1-0.1-0.1c-0.1,0-0.1-0.1-0.2-0.2c-0.1-0.1-0.1-0.1-0.2-0.2c-0.1,0-0.1-0.1-0.2-0.2
			l-0.2-0.2l-0.2-0.2l-0.3-0.1l-0.3-0.1l-0.3-0.1l-0.1-0.1l-0.1,0l-0.1,0l-0.1,0l-0.1,0l-0.1,0l-0.1,0l-0.1,0l-0.1,0l-0.1,0l-0.1,0
			l-0.1,0.1l0,0l-0.1,0l0,0l0,0l0,0l0,0l0,0l-0.1,0.1l0,0.1l0,0.1l0,0.1l0,0.1l0,0.1c0,0.1,0,0.2,0,0.3c0,0.1,0,0.2,0,0.3
			c0,0.2,0,0.4,0,0.6c0,0.1,0,0.2,0,0.3l0,0.2l0,0.2l0,0.2l0,0.2l-0.1,0.2l-0.1,0.2l-0.1,0.2L60,26.7L60,26.8L59.8,27l-0.1,0.2
			l-0.1,0.2l-0.2,0.2l-0.2,0.2l-0.2,0.1L59,28l-0.2,0.1l-0.2,0.1l-0.2,0.1l-0.2,0.1l-0.2,0.1l-0.2,0.1l-0.2,0.1l-0.2,0.1l-0.2,0
			l-0.2,0l-0.2,0l-0.2,0h-0.2l-0.2,0l-0.2,0l-0.2,0l-0.2,0l-0.2,0l-0.2-0.1l-0.2-0.1l-0.2-0.1L55,28.4l-0.2-0.1l-0.2-0.1l-0.2-0.1
			L54.3,28l-0.2-0.1L54,27.8l-0.2-0.1l-0.1-0.1l-0.2-0.2l-0.1-0.2L53.3,27l-0.1-0.2l-0.1-0.2L53,26.5l-0.1-0.2l-0.1-0.2l-0.1-0.2
			l0-0.2l0-0.2l0-0.2l0-0.2l0-0.2v-0.2l0-0.2l0-0.2l0-0.2l0-0.2l0-0.2l0.1-0.2l0.1-0.2l0.1-0.2l0.1-0.2l0.1-0.2l0.1-0.2l0.1-0.2
			l0.1-0.2l0.3-0.3l0.1-0.2l0.2-0.2l0.2-0.2l0.2-0.2l0.2-0.2l0.2-0.2l0.2-0.1l0.4-0.2l0.2-0.1l0.2-0.1l0.2-0.1l0.2-0.1l0.2-0.1
			l0.2-0.1l0.2-0.1l0.2,0l0.2,0l0.2,0l0.2,0l0.2,0h0.7l0.2,0l0.2,0l0.4,0.1l0.4,0.1l0.4,0.1l0.4,0.1l0.4,0.2l0.4,0.2l0.4,0.2
			l0.8,0.4l0.4,0.2l0.4,0.2l0.4,0.2l0.4,0.3l0.4,0.3l0.4,0.3l0.4,0.3l0.3,0.3l0.3,0.3l0.3,0.3l0.3,0.3c0.2,0.2,0.3,0.3,0.5,0.5
			l0.2,0.3l0.2,0.3l0.2,0.3l0.2,0.3l0.2,0.3l0.2,0.3l0.2,0.3l0.2,0.3l0.2,0.3l0.2,0.3l0.1,0.3l0.1,0.3l0.1,0.3l0.1,0.3l0.1,0.3
			l0.1,0.3l0.1,0.3l0.1,0.3l0.1,0.3l0.1,0.3l0.1,0.3l0.1,0.3l0,0.3l0,0.3l0,0.3l0,0.3l0,0.6l0,0.3l0,0.3l0,0.3l0,0.3l0,0.3l0,0.3
			l0,0.3l-0.1,0.3l-0.1,0.3l-0.1,0.3l-0.1,0.3l-0.1,0.3l-0.2,0.6l-0.2,0.6l-0.3,0.6L69,39c-0.2,0.3-0.3,0.5-0.4,0.8
			c-0.1,0.1-0.2,0.3-0.3,0.4c-0.2,0.2-0.4,0.5-0.5,0.7c-0.1,0.1-0.2,0.3-0.3,0.4c-0.2,0.2-0.3,0.4-0.5,0.6c-0.2,0.2-0.3,0.4-0.5,0.6
			c-0.2,0.2-0.4,0.4-0.5,0.6l-0.5,0.4L65,44l-0.5,0.4L64,44.7l-0.5,0.3L63,45.4l-0.5,0.3L62,45.9L61.8,46l0,0l-0.3,0.1l0,0l-0.5,0.2
			l-0.5,0.2l-0.5,0.2l-0.5,0.1L58.7,47l-0.5,0.1l-0.6,0.1l-0.6,0l-0.5,0l-0.6,0l-0.6,0l-0.5-0.1L54.3,47l-0.5-0.1l-0.5-0.2l-0.5-0.2
			l-0.5-0.2l-0.5-0.2l-0.5-0.3l-0.5-0.3L50,45.3l-0.5-0.3l-0.5-0.4l-0.3-0.2l-0.2-0.2l-0.2-0.2l-0.2-0.3l-0.2-0.3L47.6,43l-0.2-0.3
			l-0.2-0.3l-0.2-0.3l-0.2-0.3l-0.2-0.4L46.3,41l-0.2-0.4l-0.2-0.4c-0.1-0.1-0.1-0.3-0.2-0.4c-0.1-0.1-0.1-0.3-0.2-0.4l-5,1.1
			l-1.2,5c0.2,0.1,0.3,0.1,0.4,0.2s0.3,0.1,0.4,0.2l0.4,0.2l0.4,0.2l0.4,0.2l0.3,0.2L42,47l0.3,0.2l0.3,0.2l0.3,0.2l0.3,0.2l0.3,0.2
			l0.3,0.2l0.2,0.2l0.2,0.2l0.2,0.3l0.4,0.5l0.4,0.5l0.3,0.5l0.3,0.5l0.3,0.5l0.2,0.5l0.2,0.5l0.2,0.5l0.1,0.5l0.1,0.5l0.1,0.6
			l0.1,0.5l0,0.5l0,0.6l0,0.5l0,0.5l-0.1,0.6L47,58.7l-0.1,0.5l-0.1,0.5l-0.2,0.5l-0.2,0.5l-0.1,0.2l-0.1,0.1l-0.2,0.3l-0.1,0.3
			l-0.1,0.3v0l-0.2,0.4L45.3,63L45,63.5L44.7,64l-0.4,0.5L43.9,65l-0.4,0.5l-0.4,0.5c-0.2,0.2-0.6,0.6-0.8,0.8
			c-0.1,0.1-0.2,0.2-0.4,0.3c-0.2,0.1-0.5,0.4-0.6,0.5c-0.2,0.1-0.3,0.3-0.5,0.4c-0.2,0.1-0.4,0.3-0.6,0.4c-0.2,0.1-0.4,0.3-0.6,0.4
			S39.2,68.9,39,69s-0.4,0.2-0.6,0.3l-0.6,0.3l-0.6,0.2L36.8,70l-0.3,0.1l-0.3,0.1l-0.3,0.1l-0.3,0.1l-0.3,0.1l-0.3,0.1l-0.3,0.1
			l-0.3,0l-0.3,0l-0.3,0l-0.3,0l-0.3,0h-0.6l-0.3,0l-0.3,0l-0.3,0l-0.3,0l-0.6-0.1l-0.3-0.1L30,70.3l-0.3-0.1l-0.3-0.1l-0.3-0.1
			L28.8,70l-0.3-0.1l-0.3-0.1l-0.3-0.1l-0.3-0.1l-0.3-0.1L27,69.1L26.7,69l-0.3-0.2l-0.3-0.2l-0.3-0.2l-0.3-0.2l-0.5-0.4
			c-0.2-0.2-0.3-0.3-0.5-0.5c-0.2-0.2-0.3-0.3-0.5-0.5l-0.3-0.3l-0.3-0.3l-0.3-0.3l-0.3-0.3l-0.3-0.3l-0.3-0.4L22,64.5l-0.3-0.4
			l-0.3-0.4l-0.2-0.4L21,62.9l-0.2-0.4l-0.2-0.4l-0.2-0.4l-0.2-0.4l-0.2-0.4L20,60.4l-0.1-0.4l-0.1-0.4L19.7,59l0-0.2l0-0.2V58
			l0-0.2l0-0.2l0-0.2l0.1-0.4l0.1-0.2l0.1-0.2l0.1-0.2l0.1-0.2l0.1-0.2l0.1-0.2l0.1-0.2l0.1-0.2l0.1-0.2l0.1-0.2l0.3-0.4l0.2-0.2
			l0.2-0.2l0.2-0.1l0.2-0.1l0.3-0.3l0.4-0.2l0.2-0.1l0.2-0.1L23,53l0.2-0.1l0.2-0.1l0.4-0.1l0.2,0l0.2,0l0.2,0h0.4l0.2,0l0.2,0
			l0.2,0l0.2,0l0.2,0l0.2,0.1l0.4,0.2l0.2,0.1l0.2,0.1l0.2,0.1l0.2,0.1l0.2,0.1l0.1,0.1l0.2,0.1l0.1,0.2l0.1,0.2l0.1,0.2l0.1,0.2
			l0.1,0.2l0.1,0.2l0.1,0.2l0.1,0.2l0.1,0.2l0.1,0.2l0.1,0.2l0,0.2l0,0.2l0,0.2l0,0.2l0,0.2v0.2l0,0.4l0,0.2l0,0.2l0,0.2L28.6,58
			l-0.1,0.2l-0.1,0.2l-0.1,0.2l-0.1,0.2l-0.1,0.2L28,59l-0.1,0.2l-0.2,0.2l-0.2,0.2l-0.2,0.2l-0.2,0.1L27,59.9L26.8,60l-0.2,0.1
			l-0.2,0.1l-0.2,0.1l-0.2,0l-0.2,0.1l-0.2,0l-0.2,0l-0.2,0l-0.2,0l-0.3,0c-0.2,0-0.4,0-0.6,0c-0.1,0-0.2,0-0.3,0h-0.3l-0.1,0
			l-0.1,0l-0.1,0l-0.1,0l-0.1,0l-0.1,0l0,0l0,0l0,0l0,0l-0.1,0.1l-0.1,0.1L22.6,61l0,0.1l0,0.1l0,0.1l0,0.1v0.3l0,0.3l0,0.1l0,0.1
			l0,0.1l0,0.1l0.1,0.1l0.1,0.3l0.2,0.3l0.2,0.2l0.2,0.2c0.1,0.1,0.1,0.1,0.2,0.2c0.1,0.1,0.1,0.1,0.2,0.2c0.1,0,0.1,0.1,0.2,0.2
			c0,0,0.1,0.1,0.2,0.1l0.2,0.2l0.2,0.2l0.2,0.2l0.2,0.2l0.2,0.2l0.2,0.1l0.2,0.1l0.4,0.2l0.2,0.1l0.2,0.1l0.2,0.1L27,66l0.2,0.1
			l0.2,0l0.2,0l0.2,0l0.2,0l0.2,0l0.2,0h0.2l0.2,0l0.2,0l0.2,0l0.2,0l0.2,0l0.2,0l0.2,0l0.4-0.1l0.4-0.1l0.4-0.2l0.4-0.2l0.4-0.2
			l0.4-0.2l0.4-0.2l0.4-0.3l0.4-0.3l0.4-0.3l0.4-0.3l0.4-0.3c0.2-0.2,0.5-0.5,0.7-0.7l0.7-0.7l0.7-0.7c0.4-0.4,0.8-0.8,1.2-1.2
			c0.2-0.2,0.4-0.5,0.6-0.7c0.2-0.2,0.5-0.5,0.7-0.7c0.2-0.2,0.4-0.5,0.7-0.8l0.3-0.4l0.3-0.4l0.3-0.4l0.3-0.4l0.3-0.4l0.2-0.4
			l0.2-0.4l0.2-0.4l0.2-0.4l0.1-0.2l0.1-0.2l0.1-0.2l0-0.2l0-0.2l0-0.2l0-0.2l0-0.2V52l0-0.2l0-0.2l0-0.2l0-0.2L42.5,51l-0.1-0.2
			l-0.1-0.2l-0.1-0.2l-0.1-0.2L42,50l-0.1-0.2l-0.2-0.2l-0.2-0.2l-0.2-0.2L41.2,49l-0.2-0.2l-0.1-0.1l-0.2-0.1l-0.2-0.1l-0.1-0.1
			l-0.2-0.1L40,48.2l-0.2-0.1l-0.1-0.1L39.4,48l-0.3-0.1l-0.3-0.1l-0.3-0.1l-0.3,0l-0.3,0l-0.4,0l-0.3,0l-0.4,0l-0.3,0L36,47.7
			l-0.4,0.1l-0.3,0.1L34.9,48l-0.3,0.1l-0.3,0.1l-0.3,0.1l-0.3,0.1l-0.3,0.2l-0.3,0.2L32.6,49L32,49.3l-0.3,0.2
			c-0.2,0.1-0.4,0.3-0.6,0.4c-0.2,0.1-0.4,0.3-0.5,0.4l-0.1-0.1c0.1-0.2,0.2-0.4,0.4-0.6c0.1-0.2,0.3-0.4,0.4-0.7
			c0.1-0.2,0.3-0.5,0.4-0.7c0.1-0.3,0.3-0.5,0.4-0.8c0.1-0.3,0.3-0.6,0.4-0.8c0.1-0.3,0.3-0.6,0.4-0.9c0.1-0.3,0.3-0.6,0.4-0.9
			c0.1-0.3,0.3-0.6,0.4-1l0.2-0.5l0.2-0.5l0.2-0.5l0.1-0.5l0.1-0.5l0.1-0.5l0.1-0.5l0.1-0.5l0.1-0.5l0.1-0.5l0-0.5l0-0.5l0-0.5
			l0-0.5l-0.1-0.5l-0.1-0.5l-19.2,0V3000h-2.8V33H33V12.8h2967v2.8H35.8z"/>
		<g>
			<polygon class="st0" points="46.3,61.1 46.1,61.4 45.9,62 45.8,62.1 45.9,61.8 46.1,61.5 46.2,61.2 			"/>
			<path class="st0" d="M70.7,51.5v0.2l0,0.2l0,0.2l0,0.2l-0.1,0.2l-0.1,0.2L70.4,53l-0.1,0.2l-0.1,0.2L70,53.6l-0.2,0.2l-0.2,0.1
				L69.6,54l-0.2,0.1l-0.1,0l-0.1,0.1l-0.1,0l-0.1,0l-0.1,0l-0.1,0l-0.1,0l-0.1,0l-0.1,0l-0.1,0l-0.1,0H68l-0.1,0l-0.1,0l-0.1,0
				l-0.1,0l-0.1,0l-0.1,0l-0.1,0l-0.1,0l-0.1-0.1l-0.1,0L67,54L66.9,54l-0.2-0.2l-0.1-0.2l-0.1-0.2l-0.1-0.2l-0.1-0.2l-0.1-0.2
				l0-0.1l0-0.1l0-0.1l0-0.1l0-0.1v-0.2l0-0.1l0-0.1l0-0.1l0-0.1l0-0.1l0-0.1l0-0.1l0-0.1l0.1-0.1l0.1-0.2l0.1-0.1l0.1-0.1l0.1-0.1
				l0.1-0.1l0.1-0.1l0.2-0.1l0.1,0l0.1,0l0.1,0l0.1,0l0.1,0l0.2,0l0.2,0h0.2c0.2,0,0.4,0,0.6,0c0,0,0.1,0,0.1,0l0,0l0.1,0l0,0l0,0
				l0,0l0,0l0,0l0-0.1l0,0l0-0.1l0-0.1l0-0.1V50l0-0.1l0-0.1l0-0.1l0-0.1l-0.1-0.1l-0.1-0.1L69,49.2l-0.1-0.1L68.8,49l-0.1-0.1
				l-0.1-0.1l-0.1-0.1c0,0-0.1,0-0.1-0.1c-0.1-0.1-0.2-0.1-0.2-0.2c-0.1-0.1-0.1-0.1-0.2-0.2c-0.1,0-0.2-0.1-0.2-0.1
				c-0.1,0-0.1-0.1-0.2-0.1L67.4,48l-0.2-0.1l-0.2-0.1l-0.2,0l-0.2,0l-0.2,0h-0.2l-0.2,0l-0.2,0l-0.2,0l-0.2,0.1L65.1,48L64.9,48
				l-0.2,0.1l-0.2,0.1l-0.2,0.1l-0.2,0.1L64,48.6c-0.1,0.1-0.2,0.2-0.4,0.3l-0.4,0.3l-0.4,0.3l-0.3,0.3l-0.4,0.4
				c-0.2,0.2-0.4,0.4-0.6,0.6c-0.2,0.2-0.4,0.5-0.7,0.7l-0.3,0.4l-0.3,0.4l-0.2,0.2L60,52.7l-0.1,0.2l-0.1,0.2l-0.1,0.2l-0.1,0.2
				l-0.1,0.2l-0.1,0.2l0,0.2l0,0.2l0,0.1v0.1l0,0.1l0,0.1v0.1l0,0.2l0,0.1l0,0.1l0,0.1l0,0.1l0.1,0.1l0,0.1l0.1,0.1l0.1,0.1l0.1,0.1
				l0.1,0.1l0.1,0.1l0.1,0.1l0.1,0.1l0.1,0.1l0.2,0.1l0.1,0.1l0.2,0.1l0.2,0.1l0.2,0.1l0.2,0l0.2,0l0.2,0l0.2,0l0.2,0l0.3,0l0.2,0
				l0.2,0l0.2,0l0.2,0l0.2,0l0.3-0.1l0.3-0.1l0.3-0.2l0.3-0.2l0.3-0.2l0.3-0.2c0.1-0.1,0.2-0.1,0.3-0.2l0,0
				c-0.1,0.2-0.2,0.4-0.4,0.6c-0.1,0.2-0.3,0.5-0.4,0.7c-0.1,0.1-0.1,0.2-0.2,0.4c-0.1,0.1-0.1,0.3-0.2,0.4C64.1,57.9,64,58,64,58.1
				l-0.2,0.4L63.6,59l-0.2,0.5L63.3,60l-0.1,0.5l0,0.2l0,0.2l0,0.2l0,0.2l0,0.2v0.2l0,0.2l0,0.2l0.1,0l0.1,0l0.1,0l0.1,0l0.1,0
				l0.1,0l0.1,0h0.2l0.1,0l0.1,0l0.1,0l0.1,0l0.1,0l0.1,0l0.1,0l0.1,0l0.1,0l0.1,0l0.1,0.1l0.1,0l0.1,0.1l0.1,0.1l0.1,0.1l0.2,0.2
				l0.1,0.1l0,0.1l0,0.1l0,0.1l0,0.1l0,0.1l0,0.1l0,0.1l0,0.1l0,0.1l0,0.1v0.1l0,0.1l0,0.1v0.1l0,0.1l0,0.1l0,0.1l0,0.1l0,0.1l0,0.1
				l0,0.1l0,0.1l0,0.1l0,0.1l-0.1,0.1l-0.2,0.2l-0.1,0.1l-0.1,0.1l-0.1,0.1l-0.1,0.1l-0.1,0l-0.1,0l-0.1,0l-0.1,0l-0.1,0l-0.1,0
				l-0.1,0l-0.1,0l-0.1,0l-0.1,0l-0.1,0h-0.2l-0.1,0l-0.1,0l-0.1,0l-0.1,0l-0.1,0l-0.1,0l-0.1,0l-0.1,0l-0.1,0l-0.1,0l-0.1,0
				l-0.1-0.1l-0.1-0.1l-0.1-0.1l-0.1-0.1l-0.1-0.1l-0.1-0.2l0-0.1l0-0.1l0-0.1l0-0.1l0-0.1l0-0.1l0-0.1l0-0.1l0-0.1l0-0.1v-0.2
				l0-0.1l0-0.1l0-0.1l0-0.1l0-0.1l0-0.1l0-0.1l-0.2,0l-0.2,0h-0.2l-0.2,0l-0.2,0l-0.2,0l-0.2,0l-0.2,0l-0.5,0.1l-0.5,0.1l-0.5,0.2
				l-0.4,0.2L58.1,64l-0.4,0.2c-0.1,0.1-0.3,0.1-0.4,0.2c-0.1,0.1-0.3,0.1-0.4,0.2c-0.1,0.1-0.2,0.1-0.4,0.2
				c-0.1,0.1-0.2,0.1-0.3,0.2c-0.2,0.1-0.4,0.3-0.6,0.4l0,0l0.2-0.3l0.2-0.3l0.2-0.3l0.2-0.3l0.2-0.3l0.1-0.3l0.1-0.3l0-0.2l0-0.2
				l0-0.2l0-0.2l0-0.2l0-0.2v-0.4l0-0.3l0-0.2l0-0.2L56.7,61l-0.1-0.2l-0.1-0.1l-0.1-0.2l-0.1-0.2l-0.1-0.1l-0.1-0.1L56,59.9
				l-0.1-0.1l-0.1-0.1l-0.1-0.1l-0.1-0.1l-0.1-0.1l-0.1,0l-0.1,0l-0.1,0l-0.1,0l-0.1,0l-0.2,0l-0.1,0h-0.2l-0.1,0l-0.1,0l-0.2,0
				l-0.2,0l-0.2,0.1l-0.2,0.1l-0.2,0.1l-0.2,0.1l-0.2,0.1l-0.4,0.3l-0.2,0.1l-0.4,0.3L51.5,61c-0.1,0.1-0.2,0.2-0.3,0.3
				c-0.1,0.1-0.2,0.2-0.3,0.3c-0.2,0.2-0.4,0.4-0.6,0.6c-0.1,0.1-0.2,0.2-0.3,0.3c-0.1,0.1-0.2,0.2-0.3,0.3l-0.3,0.3l-0.3,0.4
				L48.6,64l-0.3,0.4l-0.1,0.2l-0.1,0.2L48,65l-0.1,0.2l-0.1,0.2l-0.1,0.2l-0.1,0.2L47.6,66l0,0.2l0,0.2v0.2l0,0.3l0,0.1l0,0.1
				l0,0.1l0,0.1l0,0.1l0,0.1l0,0.1l0.1,0.1L48,68l0.1,0.1l0.1,0.1c0.1,0.1,0.1,0.1,0.2,0.2c0.1,0.1,0.1,0.1,0.2,0.2
				c0,0,0.1,0.1,0.2,0.1s0.1,0.1,0.2,0.2L49,69l0.3,0.2l0.1,0.1l0.1,0l0.1,0l0.1,0l0.1,0l0.1,0H50l0.1,0l0,0l0.1,0l0,0l0.1,0l0,0
				l0,0l0,0l0,0l0,0l0,0l0-0.1c0,0,0-0.1,0-0.1c0-0.1,0-0.2,0-0.3V68l0-0.2l0-0.2l0-0.1l0-0.1l0-0.1l0-0.1l0-0.1l0-0.1l0.1-0.1
				l0.1-0.1l0.1-0.1l0.1-0.1l0.1-0.1l0.2-0.1l0.1,0l0.1-0.1l0.1,0l0.1,0l0.1,0l0.1,0l0.1,0l0.1,0l0.1,0l0.1,0h0.3l0.1,0l0.1,0l0.1,0
				l0.1,0l0.1,0l0.1,0l0.2,0.1l0.2,0.1l0.2,0.1l0.2,0.1l0.2,0.1l0.1,0.1l0.1,0.1l0.1,0.1l0.1,0.1l0.1,0.1l0,0.1l0,0.1l0,0.1l0,0.1
				l0,0.1l0,0.1l0,0.1l0,0.2v0.2l0,0.1l0,0.1l0,0.1l0,0.1l0,0.1l0,0.1l0,0.1l0,0.1l0,0.1l0,0.1L54,69.5l-0.1,0.1l-0.1,0.2l-0.1,0.1
				l-0.1,0.1l-0.2,0.2l-0.2,0.2l-0.2,0.1l-0.2,0.1l-0.2,0.1l-0.2,0.1l-0.2,0.1l-0.2,0l-0.2,0l-0.2,0h-0.2l-0.2,0l-0.2,0l-0.2,0
				l-0.2-0.1l-0.2-0.1l-0.2-0.1l-0.2-0.1l-0.2-0.1l-0.2-0.1l-0.2-0.1L49.1,70l-0.4-0.2l-0.4-0.3l-0.4-0.3c-0.1-0.1-0.2-0.2-0.3-0.3
				c-0.1-0.1-0.2-0.2-0.3-0.3l-0.2-0.2l-0.2-0.3l-0.2-0.3l-0.2-0.3l-0.2-0.3L46.1,67L46,66.7l-0.1-0.3l-0.1-0.3l-0.1-0.3l-0.1-0.3
				l-0.1-0.3l0-0.3l0-0.3l0-0.3l0-0.3l0-0.3l0-0.3l0.1-0.3l0.1-0.3l0.1-0.3l0.1-0.3v0l0.1-0.3l0.1-0.3l0.2-0.3l0.1-0.1l0.1-0.2
				l0.2-0.3l0.2-0.3L47,60l0.2-0.3l0.2-0.3l0.3-0.3L48,59l0.2-0.2l0.2-0.2l0.2-0.2l0.2-0.2l0.2-0.2l0.3-0.1l0.3-0.1l0.3-0.1l0.3-0.1
				l0.3-0.1l0.3-0.1l0.3-0.1l0.3-0.1l0.3-0.1l0.3,0l0.3,0h0.5l0.3,0l0.3,0l0.3,0l0.3,0.1l0.3,0.1l0.3,0.1l0.3,0.1l0.3,0.1l0.3,0.1
				l0.2,0.1l0.2,0.2l0.2,0.2l0.2,0.2l0.1,0.1l0.1,0.1l0.1,0.1l0.1,0.1l0.1,0.1l0.1,0.1c0.1,0.1,0.2,0.2,0.2,0.3
				c0.1,0.1,0.1,0.2,0.2,0.3c0.1,0.1,0.1,0.2,0.2,0.3c0.1,0.1,0.1,0.3,0.2,0.4s0.1,0.3,0.2,0.4l2.5-0.6l0.6-2.5
				c-0.1-0.1-0.3-0.1-0.4-0.2c-0.1-0.1-0.3-0.1-0.4-0.2c-0.1-0.1-0.2-0.1-0.4-0.2c-0.1-0.1-0.2-0.1-0.3-0.2
				c-0.1-0.1-0.2-0.2-0.3-0.2L59,56.8l-0.1-0.1l-0.1-0.1l-0.1-0.1l-0.1-0.1l-0.1-0.1L58.2,56L58,55.7l-0.2-0.2l-0.1-0.2L57.6,55
				l-0.2-0.5l-0.1-0.3l-0.1-0.3l-0.1-0.3l0-0.3l0-0.3l0-0.3l0-0.3l0-0.3l0-0.3l0-0.3l0-0.3l0.1-0.3l0.1-0.3l0.1-0.3l0.1-0.3l0.1-0.3
				l0.3-0.5l0.1-0.2l0.2-0.2l0.2-0.2l0.2-0.2l0.2-0.2l0.2-0.2l0.2-0.2l0.3-0.3l0.3-0.3l0.3-0.2l0.3-0.2l0.3-0.2l0.3-0.2l0.3-0.2
				l0.3-0.2l0,0l0.3-0.1l0,0l0.3-0.1l0.3-0.1l0.3-0.1l0.3-0.1l0.3-0.1l0.3,0l0.3,0l0.3,0l0.3,0l0.3,0l0.3,0l0.3,0.1l0.3,0.1l0.3,0.1
				l0.3,0.1l0.3,0.1l0.3,0.1l0.3,0.2l0.3,0.2l0.3,0.2L68,47l0.3,0.2l0.3,0.2c0.1,0.1,0.2,0.2,0.3,0.3c0.1,0.1,0.2,0.2,0.3,0.3
				c0.1,0.1,0.2,0.2,0.3,0.3l0.3,0.4l0.2,0.4l0.1,0.2l0.1,0.2l0.1,0.2l0.1,0.2l0.1,0.2l0.1,0.2l0.1,0.2l0.1,0.2l0,0.2l0,0.2
				L70.7,51.5z"/>
		</g>
	</g>
</g>
</svg>
